<svg width="668" height="351" viewBox="0 0 668 351" fill="none" xmlns="http://www.w3.org/2000/svg">
<rect width="668" height="351" fill="#FFBC51"/>
<path d="M78 126C78 117.716 84.7157 111 93 111H575C583.284 111 590 117.716 590 126V231C590 239.284 583.284 246 575 246H93C84.7157 246 78 239.284 78 231V126Z" fill="#FCFCFC"/>
<path d="M227.84 204.336V144.624C227.84 143.28 231.072 142.608 237.536 142.608C244.064 142.608 247.328 143.28 247.328 144.624V191.664H262.112C263.264 191.664 264.064 193.168 264.512 196.176C264.704 197.648 264.8 199.152 264.8 200.688C264.8 202.224 264.704 203.792 264.512 205.392C264 208.464 263.168 210 262.016 210H232.448C231.04 210 229.92 209.424 229.088 208.272C228.256 207.12 227.84 205.808 227.84 204.336ZM274.167 204.336C270.199 199.92 268.215 193.808 268.215 186C268.215 178.192 270.199 172.08 274.167 167.664C278.199 163.248 283.607 161.04 290.391 161.04C297.175 161.04 302.551 163.248 306.519 167.664C310.487 172.08 312.471 178.192 312.471 186C312.471 193.808 310.487 199.92 306.519 204.336C302.551 208.752 297.175 210.96 290.391 210.96C283.607 210.96 278.199 208.752 274.167 204.336ZM290.391 177.072C286.807 177.072 285.015 180.016 285.015 185.904C285.015 191.792 286.807 194.736 290.391 194.736C294.039 194.736 295.863 191.792 295.863 185.904C295.863 180.016 294.039 177.072 290.391 177.072ZM336.922 210C330.714 210 325.914 208.016 322.522 204.048C319.13 200.016 317.434 194.096 317.434 186.288C317.434 178.416 319.642 172.272 324.058 167.856C328.538 163.376 334.458 161.136 341.818 161.136C349.242 161.136 355.354 162.768 360.154 166.032V213.84C360.154 218.576 358.234 222.192 354.394 224.688C350.554 227.248 345.626 228.528 339.609 228.528C333.594 228.528 328.218 227.76 323.482 226.224C322.842 224.688 322.522 223.312 322.522 222.096C322.522 218 323.194 214.992 324.538 213.072C328.826 214.928 333.402 215.856 338.266 215.856C341.786 215.856 343.546 214.608 343.546 212.112V209.232C340.794 209.744 338.586 210 336.922 210ZM341.338 176.784C337.05 176.784 334.906 180.016 334.906 186.48C334.906 190.512 335.738 193.136 337.402 194.352C338.49 195.184 339.578 195.6 340.666 195.6C341.754 195.6 342.714 195.504 343.546 195.312V177.072C342.778 176.88 342.042 176.784 341.338 176.784ZM386.326 209.424C386.326 209.936 383.382 210.192 377.494 210.192C371.67 210.192 368.758 209.968 368.758 209.52V162.384C368.758 161.936 371.67 161.712 377.494 161.712C383.382 161.712 386.326 161.904 386.326 162.288V209.424ZM386.326 156.624C386.326 157.072 383.382 157.296 377.494 157.296C371.67 157.296 368.758 157.104 368.758 156.72V142.896C368.758 142.256 371.67 141.936 377.494 141.936C383.382 141.936 386.326 142.128 386.326 142.512V156.624ZM415.072 209.424C415.072 209.872 412.768 210.096 408.16 210.096C401.76 209.904 398.56 209.552 398.56 209.04V177.936H396.064C394.4 177.936 393.312 176.528 392.8 173.712C392.672 172.88 392.608 172.048 392.608 171.216C392.608 169.232 392.992 167.248 393.76 165.264C394.912 162.448 396.704 161.04 399.136 161.04C401.568 161.04 403.744 161.616 405.664 162.768C407.584 163.92 408.864 165.072 409.504 166.224C413.536 162.768 418.336 161.04 423.904 161.04C429.472 161.04 433.504 162.544 436 165.552C438.496 168.56 439.744 173.488 439.744 180.336V209.136C439.744 209.904 436.992 210.288 431.488 210.288C426.048 210.288 423.328 209.904 423.328 209.136V181.392C423.328 178.192 422.208 176.592 419.968 176.592C419.328 176.592 418.432 176.88 417.28 177.456C416.128 177.968 415.392 178.352 415.072 178.608V209.424Z" fill="#FA7342"/>
</svg>
