<svg width="512" height="135" viewBox="0 0 512 135" fill="none" xmlns="http://www.w3.org/2000/svg">
<path d="M0 15C0 6.71573 6.71573 0 15 0H497C505.284 0 512 6.71573 512 15V120C512 128.284 505.284 135 497 135H15C6.71573 135 0 128.284 0 120V15Z" fill="#FCFCFC"/>
<path d="M50.152 89.192C44.328 89.192 41.416 88.552 41.416 87.272V25.064C41.416 22.888 42.408 21.8 44.392 21.8H61.288C70.76 21.8 77.576 23.752 81.736 27.656C85.96 31.56 88.072 37.224 88.072 44.648C88.072 50.792 86.088 56.424 82.12 61.544C80.136 64.104 77.224 66.152 73.384 67.688C69.544 69.224 65.064 69.992 59.944 69.992V87.176C59.944 87.944 58.728 88.488 56.296 88.808C53.928 89.064 51.88 89.192 50.152 89.192ZM59.944 38.504V53.672H61.192C63.432 53.672 65.32 52.968 66.856 51.56C68.392 50.152 69.16 48.168 69.16 45.608C69.16 43.048 68.616 41.224 67.528 40.136C66.504 39.048 64.648 38.504 61.96 38.504H59.944Z" fill="#FA7342"/>
<path d="M112.102 88.328C112.102 88.904 109.414 89.192 104.038 89.192C98.726 89.192 96.07 88.744 96.07 87.848V22.088C96.07 21.64 97.062 21.32 99.046 21.128C101.03 20.936 102.694 20.84 104.038 20.84C109.414 20.84 112.102 21.416 112.102 22.568V41.768C115.686 40.68 118.406 40.136 120.262 40.136C125.126 40.136 128.966 41.448 131.782 44.072C134.598 46.632 136.006 51.432 136.006 58.472V88.232C136.006 88.808 133.51 89.096 128.518 89.096C122.886 88.904 120.07 88.584 120.07 88.136V59.912C120.07 56.776 119.046 55.208 116.998 55.208C115.59 55.208 113.958 55.88 112.102 57.224V88.328Z" fill="#FA7342"/>
<path d="M148.292 83.336C144.324 78.92 142.34 72.808 142.34 65C142.34 57.192 144.324 51.08 148.292 46.664C152.324 42.248 157.732 40.04 164.516 40.04C171.3 40.04 176.676 42.248 180.644 46.664C184.612 51.08 186.596 57.192 186.596 65C186.596 72.808 184.612 78.92 180.644 83.336C176.676 87.752 171.3 89.96 164.516 89.96C157.732 89.96 152.324 87.752 148.292 83.336ZM164.516 56.072C160.932 56.072 159.14 59.016 159.14 64.904C159.14 70.792 160.932 73.736 164.516 73.736C168.164 73.736 169.988 70.792 169.988 64.904C169.988 59.016 168.164 56.072 164.516 56.072Z" fill="#FA7342"/>
<path d="M215.462 88.424C215.462 89.192 212.774 89.576 207.398 89.576C200.998 89.32 197.799 88.904 197.799 88.328V54.344H192.902C191.622 54.344 190.982 52.136 190.982 47.72C190.982 46.568 191.079 45.16 191.271 43.496C191.527 41.832 192.006 41 192.71 41H197.799V32.552C197.799 31.272 200.487 30.632 205.863 30.632C211.303 30.632 214.023 31.144 214.023 32.168V38.312L214.118 41H222.279C223.367 41 223.911 43.24 223.911 47.72C223.911 52.2 223.367 54.44 222.279 54.44H215.462V88.424Z" fill="#FA7342"/>
<path d="M232.854 83.336C228.886 78.92 226.902 72.808 226.902 65C226.902 57.192 228.886 51.08 232.854 46.664C236.886 42.248 242.294 40.04 249.078 40.04C255.862 40.04 261.238 42.248 265.206 46.664C269.174 51.08 271.158 57.192 271.158 65C271.158 72.808 269.174 78.92 265.206 83.336C261.238 87.752 255.862 89.96 249.078 89.96C242.294 89.96 236.886 87.752 232.854 83.336ZM249.078 56.072C245.494 56.072 243.702 59.016 243.702 64.904C243.702 70.792 245.494 73.736 249.078 73.736C252.726 73.736 254.55 70.792 254.55 64.904C254.55 59.016 252.726 56.072 249.078 56.072Z" fill="#FA7342"/>
<path d="M323.975 20.936C328.647 20.936 332.743 21.608 336.263 22.952C339.847 24.232 341.639 25.992 341.639 28.232C341.639 30.472 340.775 33.256 339.047 36.584C337.383 39.848 335.975 41.48 334.823 41.48C334.503 41.48 334.119 41.32 333.671 41C333.287 40.616 332.327 40.232 330.791 39.848C329.319 39.4 328.039 39.176 326.951 39.176C323.239 39.176 320.231 40.488 317.927 43.112C315.687 45.736 314.567 49.768 314.567 55.208C314.567 60.584 315.719 64.584 318.023 67.208C320.391 69.832 323.367 71.144 326.951 71.144C328.423 71.144 330.055 70.952 331.847 70.568C333.703 70.12 335.015 69.512 335.783 68.744C335.911 68.616 336.167 68.552 336.551 68.552C336.935 68.552 337.639 69.288 338.663 70.76C339.751 72.168 340.743 74.056 341.639 76.424C342.535 78.728 342.983 80.52 342.983 81.8C342.983 84.296 341.063 86.28 337.223 87.752C333.383 89.224 328.839 89.96 323.591 89.96C315.143 89.96 308.199 86.984 302.759 81.032C297.319 75.08 294.599 66.696 294.599 55.88C294.599 45 297.383 36.456 302.951 30.248C308.583 24.04 315.591 20.936 323.975 20.936Z" fill="#FA7342"/>
<path d="M367.323 88.232C367.323 88.808 364.059 89.096 357.531 89.096C352.411 89.032 349.851 88.776 349.851 88.328V22.952C349.851 21.992 352.955 21.512 359.163 21.512C364.603 21.704 367.323 22.024 367.323 22.472V88.232Z" fill="#FA7342"/>
<path d="M375.527 41.576C375.527 40.872 378.28 40.52 383.784 40.52C389.288 40.52 392.039 40.872 392.039 41.576V69.608C392.039 72.808 393.064 74.408 395.112 74.408C396.648 74.408 398.376 73.736 400.296 72.392V41.576C400.296 40.936 403.016 40.616 408.456 40.616C413.896 40.616 416.616 40.936 416.616 41.576V73.064H419.112C421.288 73.064 422.375 75.144 422.375 79.304C422.375 81.416 421.927 83.56 421.031 85.736C419.751 88.552 418.024 89.96 415.848 89.96C411.56 89.96 408.392 88.2 406.344 84.68L406.247 84.776C402.343 88.232 398.152 89.96 393.672 89.96C387.464 89.96 382.888 88.424 379.944 85.352C377 82.216 375.527 77.064 375.527 69.896V41.576Z" fill="#FA7342"/>
<path d="M428.706 22.088C428.706 21.32 431.458 20.936 436.962 20.936C442.53 20.936 445.314 21.352 445.314 22.184V40.808C448.066 40.296 450.018 40.04 451.17 40.04C464.61 40.04 471.33 47.752 471.33 63.176C471.33 71.752 469.25 78.376 465.09 83.048C460.994 87.656 455.138 89.96 447.522 89.96C439.97 89.96 433.698 88.264 428.706 84.872V22.088ZM448.482 55.016C447.394 55.016 446.338 55.368 445.314 56.072V74.408C446.21 74.792 447.138 74.984 448.098 74.984C449.122 74.984 450.146 74.6 451.17 73.832C452.962 72.552 453.858 69.576 453.858 64.904C453.858 58.312 452.066 55.016 448.482 55.016Z" fill="#FA7342"/>
<path d="M223.288 118.048C221.832 118.048 221.104 117.888 221.104 117.568V102.016C221.104 101.472 221.352 101.2 221.848 101.2H226.072C228.44 101.2 230.144 101.688 231.184 102.664C232.24 103.64 232.768 105.056 232.768 106.912C232.768 108.448 232.272 109.856 231.28 111.136C230.784 111.776 230.056 112.288 229.096 112.672C228.136 113.056 227.016 113.248 225.736 113.248V117.544C225.736 117.736 225.432 117.872 224.824 117.952C224.232 118.016 223.72 118.048 223.288 118.048ZM225.736 105.376V109.168H226.048C226.608 109.168 227.08 108.992 227.464 108.64C227.848 108.288 228.04 107.792 228.04 107.152C228.04 106.512 227.904 106.056 227.632 105.784C227.376 105.512 226.912 105.376 226.24 105.376H225.736Z" fill="#D96236"/>
<path d="M238.775 117.832C238.775 117.976 238.104 118.048 236.76 118.048C235.432 118.048 234.768 117.936 234.768 117.712V101.272C234.768 101.16 235.016 101.08 235.512 101.032C236.008 100.984 236.424 100.96 236.76 100.96C238.104 100.96 238.775 101.104 238.775 101.392V106.192C239.671 105.92 240.352 105.784 240.816 105.784C242.032 105.784 242.991 106.112 243.695 106.768C244.399 107.408 244.751 108.608 244.751 110.368V117.808C244.751 117.952 244.128 118.024 242.88 118.024C241.472 117.976 240.768 117.896 240.768 117.784V110.728C240.768 109.944 240.511 109.552 239.999 109.552C239.647 109.552 239.239 109.72 238.775 110.056V117.832Z" fill="#D96236"/>
<path d="M247.823 116.584C246.831 115.48 246.335 113.952 246.335 112C246.335 110.048 246.831 108.52 247.823 107.416C248.831 106.312 250.183 105.76 251.879 105.76C253.575 105.76 254.919 106.312 255.911 107.416C256.903 108.52 257.399 110.048 257.399 112C257.399 113.952 256.903 115.48 255.911 116.584C254.919 117.688 253.575 118.24 251.879 118.24C250.183 118.24 248.831 117.688 247.823 116.584ZM251.879 109.768C250.983 109.768 250.535 110.504 250.535 111.976C250.535 113.448 250.983 114.184 251.879 114.184C252.791 114.184 253.247 113.448 253.247 111.976C253.247 110.504 252.791 109.768 251.879 109.768Z" fill="#D96236"/>
<path d="M264.616 117.856C264.616 118.048 263.944 118.144 262.6 118.144C261 118.08 260.2 117.976 260.2 117.832V109.336H258.976C258.656 109.336 258.496 108.784 258.496 107.68C258.496 107.392 258.52 107.04 258.568 106.624C258.632 106.208 258.752 106 258.928 106H260.2V103.888C260.2 103.568 260.872 103.408 262.216 103.408C263.576 103.408 264.256 103.536 264.256 103.792V105.328L264.28 106H266.32C266.592 106 266.728 106.56 266.728 107.68C266.728 108.8 266.592 109.36 266.32 109.36H264.616V117.856Z" fill="#D96236"/>
<path d="M268.964 116.584C267.972 115.48 267.476 113.952 267.476 112C267.476 110.048 267.972 108.52 268.964 107.416C269.972 106.312 271.324 105.76 273.02 105.76C274.716 105.76 276.06 106.312 277.052 107.416C278.044 108.52 278.54 110.048 278.54 112C278.54 113.952 278.044 115.48 277.052 116.584C276.06 117.688 274.716 118.24 273.02 118.24C271.324 118.24 269.972 117.688 268.964 116.584ZM273.02 109.768C272.124 109.768 271.676 110.504 271.676 111.976C271.676 113.448 272.124 114.184 273.02 114.184C273.932 114.184 274.388 113.448 274.388 111.976C274.388 110.504 273.932 109.768 273.02 109.768Z" fill="#D96236"/>
<path d="M285.264 113.68C286.56 114.464 287.584 114.856 288.336 114.856C288.816 114.856 289.056 114.688 289.056 114.352C289.056 114.112 288.64 113.8 287.808 113.416C285.808 112.6 284.808 111.264 284.808 109.408C284.808 108.224 285.24 107.32 286.104 106.696C286.968 106.072 288 105.76 289.2 105.76C290.416 105.76 291.44 105.888 292.272 106.144C293.12 106.4 293.544 106.736 293.544 107.152C293.544 107.504 293.368 107.968 293.016 108.544C292.68 109.12 292.448 109.432 292.32 109.48C291.632 109.096 290.888 108.904 290.088 108.904C289.656 108.904 289.44 109.056 289.44 109.36C289.44 109.552 289.52 109.72 289.68 109.864C289.856 109.992 290.168 110.16 290.616 110.368C291.064 110.56 291.432 110.736 291.72 110.896C292.024 111.056 292.36 111.28 292.728 111.568C293.496 112.176 293.88 112.968 293.88 113.944C293.88 115.224 293.456 116.264 292.608 117.064C291.76 117.848 290.48 118.24 288.768 118.24C287.632 118.24 286.6 118.048 285.672 117.664C284.744 117.28 284.28 116.752 284.28 116.08C284.28 115.632 284.384 115.16 284.592 114.664C284.816 114.168 285.04 113.84 285.264 113.68Z" fill="#D96236"/>
<path d="M299.572 117.832C299.572 117.976 298.9 118.048 297.556 118.048C296.228 118.048 295.564 117.936 295.564 117.712V101.272C295.564 101.16 295.812 101.08 296.308 101.032C296.804 100.984 297.22 100.96 297.556 100.96C298.9 100.96 299.572 101.104 299.572 101.392V106.192C300.468 105.92 301.148 105.784 301.612 105.784C302.828 105.784 303.788 106.112 304.492 106.768C305.196 107.408 305.548 108.608 305.548 110.368V117.808C305.548 117.952 304.924 118.024 303.676 118.024C302.268 117.976 301.564 117.896 301.564 117.784V110.728C301.564 109.944 301.308 109.552 300.796 109.552C300.444 109.552 300.036 109.72 299.572 110.056V117.832Z" fill="#D96236"/>
<path d="M309.1 109.288C308.652 108.488 308.428 107.84 308.428 107.344C308.428 106.832 308.564 106.504 308.836 106.36C309.748 105.96 310.996 105.76 312.58 105.76C314.18 105.76 315.308 106.136 315.964 106.888C316.62 107.624 316.948 108.72 316.948 110.176V113.968H317.764C318.036 113.968 318.244 114.128 318.388 114.448C318.548 114.768 318.628 115.208 318.628 115.768C318.628 116.328 318.484 116.88 318.196 117.424C317.924 117.968 317.548 118.24 317.068 118.24C316.204 118.24 315.508 118.008 314.98 117.544C314.74 117.352 314.556 117.12 314.428 116.848C313.692 117.776 312.548 118.24 310.996 118.24C309.828 118.24 308.844 117.824 308.044 116.992C307.244 116.16 306.844 115.176 306.844 114.04C306.844 111.432 308.404 110.128 311.524 110.128H312.844V109.888C312.844 109.472 312.772 109.208 312.628 109.096C312.5 108.968 312.188 108.904 311.692 108.904C311.084 108.904 310.22 109.032 309.1 109.288ZM311.02 113.704C311.02 114.056 311.116 114.328 311.308 114.52C311.5 114.696 311.74 114.784 312.028 114.784C312.332 114.784 312.604 114.664 312.844 114.424V112.576H312.172C311.404 112.576 311.02 112.952 311.02 113.704Z" fill="#D96236"/>
<path d="M325.242 117.976C325.242 118.088 324.514 118.144 323.058 118.144C321.602 118.112 320.874 118.048 320.874 117.952V109.984H320.226C319.97 109.984 319.762 109.832 319.602 109.528C319.458 109.208 319.386 108.816 319.386 108.352C319.386 106.624 319.898 105.76 320.922 105.76C321.642 105.76 322.242 105.984 322.722 106.432C323.202 106.864 323.442 107.36 323.442 107.92C323.778 107.264 324.226 106.744 324.786 106.36C325.362 105.96 325.946 105.76 326.538 105.76C327.466 105.76 328.026 106 328.218 106.48C328.266 106.608 328.29 106.8 328.29 107.056C328.29 107.296 328.21 107.736 328.05 108.376C327.906 109.016 327.754 109.48 327.594 109.768C327.434 110.056 327.338 110.2 327.306 110.2C327.274 110.2 327.122 110.144 326.85 110.032C326.594 109.904 326.362 109.84 326.154 109.84C325.546 109.84 325.242 110.32 325.242 111.28V117.976Z" fill="#D96236"/>
<path d="M333.894 117.856C333.894 117.984 333.158 118.048 331.686 118.048C330.23 118.048 329.502 117.992 329.502 117.88V106.096C329.502 105.984 330.23 105.928 331.686 105.928C333.158 105.928 333.894 105.976 333.894 106.072V117.856ZM333.894 104.656C333.894 104.768 333.158 104.824 331.686 104.824C330.23 104.824 329.502 104.776 329.502 104.68V101.224C329.502 101.064 330.23 100.984 331.686 100.984C333.158 100.984 333.894 101.032 333.894 101.128V104.656Z" fill="#D96236"/>
<path d="M341.08 117.856C341.08 117.968 340.504 118.024 339.352 118.024C337.752 117.976 336.952 117.888 336.952 117.76V109.984H336.328C335.912 109.984 335.64 109.632 335.512 108.928C335.48 108.72 335.464 108.512 335.464 108.304C335.464 107.808 335.56 107.312 335.752 106.816C336.04 106.112 336.488 105.76 337.096 105.76C337.704 105.76 338.248 105.904 338.728 106.192C339.208 106.48 339.528 106.768 339.688 107.056C340.696 106.192 341.896 105.76 343.288 105.76C344.68 105.76 345.688 106.136 346.312 106.888C346.936 107.64 347.248 108.872 347.248 110.584V117.784C347.248 117.976 346.56 118.072 345.184 118.072C343.824 118.072 343.144 117.976 343.144 117.784V110.848C343.144 110.048 342.864 109.648 342.304 109.648C342.144 109.648 341.92 109.72 341.632 109.864C341.344 109.992 341.16 110.088 341.08 110.152V117.856Z" fill="#D96236"/>
<path d="M353.699 118C352.147 118 350.947 117.504 350.099 116.512C349.251 115.504 348.827 114.024 348.827 112.072C348.827 110.104 349.379 108.568 350.483 107.464C351.603 106.344 353.083 105.784 354.923 105.784C356.779 105.784 358.307 106.192 359.507 107.008V118.96C359.507 120.144 359.027 121.048 358.067 121.672C357.107 122.312 355.875 122.632 354.371 122.632C352.867 122.632 351.523 122.44 350.339 122.056C350.179 121.672 350.099 121.328 350.099 121.024C350.099 120 350.267 119.248 350.603 118.768C351.675 119.232 352.819 119.464 354.035 119.464C354.915 119.464 355.355 119.152 355.355 118.528V117.808C354.667 117.936 354.115 118 353.699 118ZM354.803 109.696C353.731 109.696 353.195 110.504 353.195 112.12C353.195 113.128 353.403 113.784 353.819 114.088C354.091 114.296 354.363 114.4 354.635 114.4C354.907 114.4 355.147 114.376 355.355 114.328V109.768C355.163 109.72 354.979 109.696 354.803 109.696Z" fill="#D96236"/>
<path d="M377.054 117.88C377.054 117.992 376.366 118.048 374.99 118.048C373.63 118.048 372.95 117.976 372.95 117.832V110.848C372.95 110.048 372.686 109.648 372.158 109.648C371.886 109.648 371.526 109.824 371.078 110.176V117.856C371.078 118.016 370.39 118.096 369.014 118.096C367.654 118.096 366.974 118.008 366.974 117.832V109.984H366.374C365.846 109.984 365.582 109.432 365.582 108.328C365.582 107.832 365.678 107.328 365.87 106.816C366.126 106.112 366.542 105.76 367.118 105.76C367.694 105.76 368.246 105.912 368.774 106.216C369.318 106.52 369.646 106.808 369.758 107.08C370.75 106.2 371.846 105.76 373.046 105.76C374.262 105.76 375.238 106.136 375.974 106.888C376.838 106.136 377.878 105.76 379.094 105.76C381.734 105.76 383.054 107.368 383.054 110.584V117.88C383.054 117.992 382.366 118.048 380.99 118.048C379.63 118.048 378.95 117.976 378.95 117.832V110.848C378.95 110.048 378.686 109.648 378.158 109.648C377.87 109.648 377.502 109.824 377.054 110.176V117.88Z" fill="#D96236"/>
<path d="M386.608 109.288C386.16 108.488 385.936 107.84 385.936 107.344C385.936 106.832 386.072 106.504 386.344 106.36C387.256 105.96 388.504 105.76 390.088 105.76C391.688 105.76 392.816 106.136 393.472 106.888C394.128 107.624 394.456 108.72 394.456 110.176V113.968H395.272C395.544 113.968 395.752 114.128 395.896 114.448C396.056 114.768 396.136 115.208 396.136 115.768C396.136 116.328 395.992 116.88 395.704 117.424C395.432 117.968 395.056 118.24 394.576 118.24C393.712 118.24 393.016 118.008 392.488 117.544C392.248 117.352 392.064 117.12 391.936 116.848C391.2 117.776 390.056 118.24 388.504 118.24C387.336 118.24 386.352 117.824 385.552 116.992C384.752 116.16 384.352 115.176 384.352 114.04C384.352 111.432 385.912 110.128 389.032 110.128H390.352V109.888C390.352 109.472 390.28 109.208 390.136 109.096C390.008 108.968 389.696 108.904 389.2 108.904C388.592 108.904 387.728 109.032 386.608 109.288ZM388.528 113.704C388.528 114.056 388.624 114.328 388.816 114.52C389.008 114.696 389.248 114.784 389.536 114.784C389.84 114.784 390.112 114.664 390.352 114.424V112.576H389.68C388.912 112.576 388.528 112.952 388.528 113.704Z" fill="#D96236"/>
<path d="M403.566 101.344C403.566 101.104 404.198 100.984 405.462 100.984C405.894 100.984 406.39 101.016 406.95 101.08C407.526 101.128 407.814 101.2 407.814 101.296V113.944H408.654C409.054 113.944 409.318 114.304 409.446 115.024C409.478 115.232 409.494 115.52 409.494 115.888C409.494 116.24 409.382 116.672 409.158 117.184C408.838 117.888 408.326 118.24 407.622 118.24C407.094 118.24 406.622 118.136 406.206 117.928C405.806 117.72 405.534 117.504 405.39 117.28L405.174 116.968C404.294 117.816 403.19 118.24 401.862 118.24C400.534 118.24 399.398 117.688 398.454 116.584C397.51 115.48 397.038 113.944 397.038 111.976C397.038 109.992 397.534 108.464 398.526 107.392C399.518 106.304 400.758 105.76 402.246 105.76C402.678 105.76 403.118 105.808 403.566 105.904V101.344ZM402.774 109.6C401.878 109.6 401.43 110.408 401.43 112.024C401.43 112.84 401.558 113.432 401.814 113.8C402.07 114.152 402.35 114.328 402.654 114.328C402.974 114.328 403.278 114.192 403.566 113.92V109.84C403.294 109.68 403.03 109.6 402.774 109.6Z" fill="#D96236"/>
<path d="M420.136 117.352C419.128 117.944 417.832 118.24 416.248 118.24C414.664 118.24 413.328 117.704 412.24 116.632C411.152 115.544 410.608 114.048 410.608 112.144C410.608 110.224 411.128 108.68 412.168 107.512C413.224 106.344 414.552 105.76 416.152 105.76C417.752 105.76 418.984 106.168 419.848 106.984C420.728 107.8 421.168 108.792 421.168 109.96C421.168 112.552 419.68 113.848 416.704 113.848H415.048C415.048 114.328 415.176 114.664 415.432 114.856C415.704 115.032 416.096 115.12 416.608 115.12C417.728 115.12 418.792 114.864 419.8 114.352C419.816 114.336 419.888 114.448 420.016 114.688C420.4 115.376 420.592 115.96 420.592 116.44C420.592 116.904 420.44 117.208 420.136 117.352ZM417.136 110.416C417.136 109.744 416.808 109.408 416.152 109.408C415.848 109.408 415.584 109.504 415.36 109.696C415.152 109.872 415.048 110.136 415.048 110.488V111.232H416.344C416.872 111.232 417.136 110.96 417.136 110.416Z" fill="#D96236"/>
<path d="M436.332 117.352C435.324 117.944 434.028 118.24 432.444 118.24C430.86 118.24 429.524 117.704 428.436 116.632C427.348 115.544 426.804 114.048 426.804 112.144C426.804 110.224 427.324 108.68 428.364 107.512C429.42 106.344 430.748 105.76 432.348 105.76C433.948 105.76 435.18 106.168 436.044 106.984C436.924 107.8 437.364 108.792 437.364 109.96C437.364 112.552 435.876 113.848 432.9 113.848H431.244C431.244 114.328 431.372 114.664 431.628 114.856C431.9 115.032 432.292 115.12 432.804 115.12C433.924 115.12 434.988 114.864 435.996 114.352C436.012 114.336 436.084 114.448 436.212 114.688C436.596 115.376 436.788 115.96 436.788 116.44C436.788 116.904 436.636 117.208 436.332 117.352ZM433.332 110.416C433.332 109.744 433.004 109.408 432.348 109.408C432.044 109.408 431.78 109.504 431.556 109.696C431.348 109.872 431.244 110.136 431.244 110.488V111.232H432.54C433.068 111.232 433.332 110.96 433.332 110.416Z" fill="#D96236"/>
<path d="M440.444 109.288C439.996 108.488 439.772 107.84 439.772 107.344C439.772 106.832 439.908 106.504 440.18 106.36C441.092 105.96 442.34 105.76 443.924 105.76C445.524 105.76 446.652 106.136 447.308 106.888C447.964 107.624 448.292 108.72 448.292 110.176V113.968H449.108C449.38 113.968 449.588 114.128 449.732 114.448C449.892 114.768 449.972 115.208 449.972 115.768C449.972 116.328 449.828 116.88 449.54 117.424C449.268 117.968 448.892 118.24 448.412 118.24C447.548 118.24 446.852 118.008 446.324 117.544C446.084 117.352 445.9 117.12 445.772 116.848C445.036 117.776 443.892 118.24 442.34 118.24C441.172 118.24 440.188 117.824 439.388 116.992C438.588 116.16 438.188 115.176 438.188 114.04C438.188 111.432 439.748 110.128 442.868 110.128H444.188V109.888C444.188 109.472 444.116 109.208 443.972 109.096C443.844 108.968 443.532 108.904 443.036 108.904C442.428 108.904 441.564 109.032 440.444 109.288ZM442.364 113.704C442.364 114.056 442.46 114.328 442.652 114.52C442.844 114.696 443.084 114.784 443.372 114.784C443.676 114.784 443.948 114.664 444.188 114.424V112.576H443.516C442.748 112.576 442.364 112.952 442.364 113.704Z" fill="#D96236"/>
<path d="M451.834 113.68C453.13 114.464 454.154 114.856 454.906 114.856C455.386 114.856 455.626 114.688 455.626 114.352C455.626 114.112 455.21 113.8 454.378 113.416C452.378 112.6 451.378 111.264 451.378 109.408C451.378 108.224 451.81 107.32 452.674 106.696C453.538 106.072 454.57 105.76 455.77 105.76C456.986 105.76 458.01 105.888 458.842 106.144C459.69 106.4 460.114 106.736 460.114 107.152C460.114 107.504 459.938 107.968 459.586 108.544C459.25 109.12 459.018 109.432 458.89 109.48C458.202 109.096 457.458 108.904 456.658 108.904C456.226 108.904 456.01 109.056 456.01 109.36C456.01 109.552 456.09 109.72 456.25 109.864C456.426 109.992 456.738 110.16 457.186 110.368C457.634 110.56 458.002 110.736 458.29 110.896C458.594 111.056 458.93 111.28 459.298 111.568C460.066 112.176 460.45 112.968 460.45 113.944C460.45 115.224 460.026 116.264 459.178 117.064C458.33 117.848 457.05 118.24 455.338 118.24C454.202 118.24 453.17 118.048 452.242 117.664C451.314 117.28 450.85 116.752 450.85 116.08C450.85 115.632 450.954 115.16 451.162 114.664C451.386 114.168 451.61 113.84 451.834 113.68Z" fill="#D96236"/>
<path d="M461.295 106.12C461.295 105.944 462.023 105.856 463.479 105.856C464.951 105.856 465.711 105.936 465.759 106.096L467.487 111.76L469.143 106.048C469.207 105.92 469.703 105.856 470.631 105.856C472.759 105.856 473.775 105.96 473.679 106.168L468.039 122.224C468.023 122.32 467.583 122.368 466.719 122.368C465.871 122.368 465.079 122.336 464.343 122.272C463.607 122.224 463.255 122.16 463.287 122.08L465.375 117.04L461.295 106.12Z" fill="#D96236"/>
</svg>
