<svg width="180" height="180" viewBox="0 0 180 180" fill="none" xmlns="http://www.w3.org/2000/svg">
<rect width="180" height="180" fill="#A2A2A2"/>
<path d="M51.352 84.472C51.352 84.808 50.6 84.976 49.096 84.976C47.592 84.976 46.776 84.856 46.648 84.616L42.64 77.128V84.592C42.64 84.88 41.896 85.024 40.408 85.024C38.936 85.024 38.2 84.88 38.2 84.592V68.536C38.2 68.296 38.832 68.176 40.096 68.176C40.592 68.176 41.168 68.224 41.824 68.32C42.496 68.4 42.904 68.56 43.048 68.8L46.888 76.192V68.656C46.888 68.352 47.632 68.2 49.12 68.2C50.608 68.2 51.352 68.352 51.352 68.656V84.472ZM54.6745 83.584C53.6825 82.48 53.1865 80.952 53.1865 79C53.1865 77.048 53.6825 75.52 54.6745 74.416C55.6825 73.312 57.0345 72.76 58.7305 72.76C60.4265 72.76 61.7705 73.312 62.7625 74.416C63.7545 75.52 64.2505 77.048 64.2505 79C64.2505 80.952 63.7545 82.48 62.7625 83.584C61.7705 84.688 60.4265 85.24 58.7305 85.24C57.0345 85.24 55.6825 84.688 54.6745 83.584ZM58.7305 76.768C57.8345 76.768 57.3865 77.504 57.3865 78.976C57.3865 80.448 57.8345 81.184 58.7305 81.184C59.6425 81.184 60.0985 80.448 60.0985 78.976C60.0985 77.504 59.6425 76.768 58.7305 76.768ZM72.1746 80.872V72.328H70.4706C70.1986 72.328 70.0066 71.984 69.8946 71.296C69.8466 70.96 69.8226 70.616 69.8226 70.264C69.8226 69.912 69.8466 69.568 69.8946 69.232C70.0066 68.544 70.1986 68.2 70.4706 68.2H78.5346C78.8066 68.2 78.9906 68.544 79.0866 69.232C79.1506 69.568 79.1826 69.912 79.1826 70.264C79.1826 70.616 79.1506 70.96 79.0866 71.296C78.9906 71.984 78.8066 72.328 78.5346 72.328H76.9266V80.872H78.6066C78.8786 80.872 79.0706 81.216 79.1826 81.904C79.2466 82.24 79.2786 82.584 79.2786 82.936C79.2786 83.288 79.2466 83.632 79.1826 83.968C79.0706 84.656 78.8786 85 78.6066 85H70.5186C70.2466 85 70.0626 84.656 69.9666 83.968C69.9026 83.632 69.8706 83.288 69.8706 82.936C69.8706 82.584 69.9026 82.24 69.9666 81.904C70.0626 81.216 70.2466 80.872 70.5186 80.872H72.1746ZM91.6317 84.88C91.6317 84.992 90.9437 85.048 89.5677 85.048C88.2077 85.048 87.5277 84.976 87.5277 84.832V77.848C87.5277 77.048 87.2637 76.648 86.7357 76.648C86.4637 76.648 86.1037 76.824 85.6557 77.176V84.856C85.6557 85.016 84.9677 85.096 83.5917 85.096C82.2317 85.096 81.5517 85.008 81.5517 84.832V76.984H80.9517C80.4237 76.984 80.1597 76.432 80.1597 75.328C80.1597 74.832 80.2557 74.328 80.4477 73.816C80.7037 73.112 81.1197 72.76 81.6957 72.76C82.2717 72.76 82.8237 72.912 83.3517 73.216C83.8957 73.52 84.2237 73.808 84.3357 74.08C85.3277 73.2 86.4237 72.76 87.6237 72.76C88.8397 72.76 89.8157 73.136 90.5517 73.888C91.4157 73.136 92.4557 72.76 93.6717 72.76C96.3117 72.76 97.6317 74.368 97.6317 77.584V84.88C97.6317 84.992 96.9437 85.048 95.5677 85.048C94.2077 85.048 93.5277 84.976 93.5277 84.832V77.848C93.5277 77.048 93.2637 76.648 92.7357 76.648C92.4477 76.648 92.0797 76.824 91.6317 77.176V84.88ZM101.186 76.288C100.738 75.488 100.514 74.84 100.514 74.344C100.514 73.832 100.65 73.504 100.922 73.36C101.834 72.96 103.082 72.76 104.666 72.76C106.266 72.76 107.394 73.136 108.05 73.888C108.706 74.624 109.034 75.72 109.034 77.176V80.968H109.85C110.122 80.968 110.33 81.128 110.474 81.448C110.634 81.768 110.714 82.208 110.714 82.768C110.714 83.328 110.57 83.88 110.282 84.424C110.01 84.968 109.634 85.24 109.154 85.24C108.29 85.24 107.594 85.008 107.066 84.544C106.826 84.352 106.642 84.12 106.514 83.848C105.778 84.776 104.634 85.24 103.082 85.24C101.914 85.24 100.93 84.824 100.13 83.992C99.3298 83.16 98.9298 82.176 98.9298 81.04C98.9298 78.432 100.49 77.128 103.61 77.128H104.93V76.888C104.93 76.472 104.858 76.208 104.714 76.096C104.586 75.968 104.274 75.904 103.778 75.904C103.17 75.904 102.306 76.032 101.186 76.288ZM103.106 80.704C103.106 81.056 103.202 81.328 103.394 81.52C103.586 81.696 103.826 81.784 104.114 81.784C104.418 81.784 104.69 81.664 104.93 81.424V79.576H104.258C103.49 79.576 103.106 79.952 103.106 80.704ZM116.488 85C114.936 85 113.736 84.504 112.888 83.512C112.04 82.504 111.616 81.024 111.616 79.072C111.616 77.104 112.168 75.568 113.272 74.464C114.392 73.344 115.872 72.784 117.712 72.784C119.568 72.784 121.096 73.192 122.296 74.008V85.96C122.296 87.144 121.816 88.048 120.856 88.672C119.896 89.312 118.664 89.632 117.16 89.632C115.656 89.632 114.312 89.44 113.128 89.056C112.968 88.672 112.888 88.328 112.888 88.024C112.888 87 113.056 86.248 113.392 85.768C114.464 86.232 115.608 86.464 116.824 86.464C117.704 86.464 118.144 86.152 118.144 85.528V84.808C117.456 84.936 116.904 85 116.488 85ZM117.592 76.696C116.52 76.696 115.984 77.504 115.984 79.12C115.984 80.128 116.192 80.784 116.608 81.088C116.88 81.296 117.152 81.4 117.424 81.4C117.696 81.4 117.936 81.376 118.144 81.328V76.768C117.952 76.72 117.768 76.696 117.592 76.696ZM133.519 84.352C132.511 84.944 131.215 85.24 129.631 85.24C128.047 85.24 126.711 84.704 125.623 83.632C124.535 82.544 123.991 81.048 123.991 79.144C123.991 77.224 124.511 75.68 125.551 74.512C126.607 73.344 127.935 72.76 129.535 72.76C131.135 72.76 132.367 73.168 133.231 73.984C134.111 74.8 134.551 75.792 134.551 76.96C134.551 79.552 133.063 80.848 130.087 80.848H128.431C128.431 81.328 128.559 81.664 128.815 81.856C129.087 82.032 129.479 82.12 129.991 82.12C131.111 82.12 132.175 81.864 133.183 81.352C133.199 81.336 133.271 81.448 133.399 81.688C133.783 82.376 133.975 82.96 133.975 83.44C133.975 83.904 133.823 84.208 133.519 84.352ZM130.519 77.416C130.519 76.744 130.191 76.408 129.535 76.408C129.231 76.408 128.967 76.504 128.743 76.696C128.535 76.872 128.431 77.136 128.431 77.488V78.232H129.727C130.255 78.232 130.519 77.96 130.519 77.416ZM40.288 112.048C38.832 112.048 38.104 111.888 38.104 111.568V96.016C38.104 95.472 38.352 95.2 38.848 95.2H43.072C45.44 95.2 47.144 95.688 48.184 96.664C49.24 97.64 49.768 99.056 49.768 100.912C49.768 102.448 49.272 103.856 48.28 105.136C47.784 105.776 47.056 106.288 46.096 106.672C45.136 107.056 44.016 107.248 42.736 107.248V111.544C42.736 111.736 42.432 111.872 41.824 111.952C41.232 112.016 40.72 112.048 40.288 112.048ZM42.736 99.376V103.168H43.048C43.608 103.168 44.08 102.992 44.464 102.64C44.848 102.288 45.04 101.792 45.04 101.152C45.04 100.512 44.904 100.056 44.632 99.784C44.376 99.512 43.912 99.376 43.24 99.376H42.736ZM57.0235 111.976C57.0235 112.088 56.2955 112.144 54.8395 112.144C53.3835 112.112 52.6555 112.048 52.6555 111.952V103.984H52.0075C51.7515 103.984 51.5435 103.832 51.3835 103.528C51.2395 103.208 51.1675 102.816 51.1675 102.352C51.1675 100.624 51.6795 99.76 52.7035 99.76C53.4235 99.76 54.0235 99.984 54.5035 100.432C54.9835 100.864 55.2235 101.36 55.2235 101.92C55.5595 101.264 56.0075 100.744 56.5675 100.36C57.1435 99.96 57.7275 99.76 58.3195 99.76C59.2475 99.76 59.8075 100 59.9995 100.48C60.0475 100.608 60.0715 100.8 60.0715 101.056C60.0715 101.296 59.9915 101.736 59.8315 102.376C59.6875 103.016 59.5355 103.48 59.3755 103.768C59.2155 104.056 59.1195 104.2 59.0875 104.2C59.0555 104.2 58.9035 104.144 58.6315 104.032C58.3755 103.904 58.1435 103.84 57.9355 103.84C57.3275 103.84 57.0235 104.32 57.0235 105.28V111.976ZM62.3151 110.584C61.3231 109.48 60.8271 107.952 60.8271 106C60.8271 104.048 61.3231 102.52 62.3151 101.416C63.3231 100.312 64.6751 99.76 66.3711 99.76C68.0671 99.76 69.4111 100.312 70.4031 101.416C71.3951 102.52 71.8911 104.048 71.8911 106C71.8911 107.952 71.3951 109.48 70.4031 110.584C69.4111 111.688 68.0671 112.24 66.3711 112.24C64.6751 112.24 63.3231 111.688 62.3151 110.584ZM66.3711 103.768C65.4751 103.768 65.0271 104.504 65.0271 105.976C65.0271 107.448 65.4751 108.184 66.3711 108.184C67.2831 108.184 67.7391 107.448 67.7391 105.976C67.7391 104.504 67.2831 103.768 66.3711 103.768ZM72.6518 100.072C72.6038 99.944 73.3478 99.88 74.8838 99.88C76.4358 99.88 77.2118 99.92 77.2118 100L78.9398 108.16L80.2358 100.12C80.2838 99.976 81.0758 99.904 82.6118 99.904C84.1638 99.904 84.9158 99.968 84.8678 100.096L81.4838 111.832C81.3718 111.992 80.4198 112.072 78.6278 112.072C76.8358 112.072 75.8758 111.952 75.7478 111.712L72.6518 100.072ZM90.4954 111.856C90.4954 111.984 89.7594 112.048 88.2874 112.048C86.8314 112.048 86.1034 111.992 86.1034 111.88V100.096C86.1034 99.984 86.8314 99.928 88.2874 99.928C89.7594 99.928 90.4954 99.976 90.4954 100.072V111.856ZM90.4954 98.656C90.4954 98.768 89.7594 98.824 88.2874 98.824C86.8314 98.824 86.1034 98.776 86.1034 98.68V95.224C86.1034 95.064 86.8314 94.984 88.2874 94.984C89.7594 94.984 90.4954 95.032 90.4954 95.128V98.656ZM98.7379 95.344C98.7379 95.104 99.3699 94.984 100.634 94.984C101.066 94.984 101.562 95.016 102.122 95.08C102.698 95.128 102.986 95.2 102.986 95.296V107.944H103.826C104.226 107.944 104.49 108.304 104.618 109.024C104.65 109.232 104.666 109.52 104.666 109.888C104.666 110.24 104.554 110.672 104.33 111.184C104.01 111.888 103.498 112.24 102.794 112.24C102.266 112.24 101.794 112.136 101.378 111.928C100.978 111.72 100.706 111.504 100.562 111.28L100.346 110.968C99.4659 111.816 98.3619 112.24 97.0339 112.24C95.7059 112.24 94.5699 111.688 93.6259 110.584C92.6819 109.48 92.2099 107.944 92.2099 105.976C92.2099 103.992 92.7059 102.464 93.6979 101.392C94.6899 100.304 95.9299 99.76 97.4179 99.76C97.8499 99.76 98.2899 99.808 98.7379 99.904V95.344ZM97.9459 103.6C97.0499 103.6 96.6019 104.408 96.6019 106.024C96.6019 106.84 96.7299 107.432 96.9859 107.8C97.2419 108.152 97.5219 108.328 97.8259 108.328C98.1459 108.328 98.4499 108.192 98.7379 107.92V103.84C98.4659 103.68 98.2019 103.6 97.9459 103.6ZM115.308 111.352C114.3 111.944 113.004 112.24 111.42 112.24C109.836 112.24 108.5 111.704 107.412 110.632C106.324 109.544 105.78 108.048 105.78 106.144C105.78 104.224 106.3 102.68 107.34 101.512C108.396 100.344 109.724 99.76 111.324 99.76C112.924 99.76 114.156 100.168 115.02 100.984C115.9 101.8 116.34 102.792 116.34 103.96C116.34 106.552 114.852 107.848 111.876 107.848H110.22C110.22 108.328 110.348 108.664 110.604 108.856C110.876 109.032 111.268 109.12 111.78 109.12C112.9 109.12 113.964 108.864 114.972 108.352C114.988 108.336 115.06 108.448 115.188 108.688C115.572 109.376 115.764 109.96 115.764 110.44C115.764 110.904 115.612 111.208 115.308 111.352ZM112.308 104.416C112.308 103.744 111.98 103.408 111.324 103.408C111.02 103.408 110.756 103.504 110.532 103.696C110.324 103.872 110.22 104.136 110.22 104.488V105.232H111.516C112.044 105.232 112.308 104.96 112.308 104.416ZM123.98 95.344C123.98 95.104 124.612 94.984 125.876 94.984C126.308 94.984 126.804 95.016 127.364 95.08C127.94 95.128 128.228 95.2 128.228 95.296V107.944H129.068C129.468 107.944 129.732 108.304 129.86 109.024C129.892 109.232 129.908 109.52 129.908 109.888C129.908 110.24 129.796 110.672 129.572 111.184C129.252 111.888 128.74 112.24 128.036 112.24C127.508 112.24 127.036 112.136 126.62 111.928C126.22 111.72 125.948 111.504 125.804 111.28L125.588 110.968C124.708 111.816 123.604 112.24 122.276 112.24C120.948 112.24 119.812 111.688 118.868 110.584C117.924 109.48 117.452 107.944 117.452 105.976C117.452 103.992 117.948 102.464 118.94 101.392C119.932 100.304 121.172 99.76 122.66 99.76C123.092 99.76 123.532 99.808 123.98 99.904V95.344ZM123.188 103.6C122.292 103.6 121.844 104.408 121.844 106.024C121.844 106.84 121.972 107.432 122.228 107.8C122.484 108.152 122.764 108.328 123.068 108.328C123.388 108.328 123.692 108.192 123.98 107.92V103.84C123.708 103.68 123.444 103.6 123.188 103.6Z" fill="#595959"/>
</svg>
